<?xml version="1.0" encoding="UTF-8"?>
<svg xmlns="http://www.w3.org/2000/svg" viewBox="554.65581 412.32625 62.42215 64.08364" role="img" aria-labelledby="title-MXHID">
  <title id="title-MXHID">Hidalgo</title>
  <path id="MXHID" data-id-entidad="13" data-codigo="MXHID" data-nombre="Hidalgo" d="M 598.07245,414.56639 L 599.70578,414.65919 L 598.74659,419.05559 C 601.03031,420.61713,600.27627,421.57919,600.86341,421.96303 C 601.28472,422.23816,602.67976,422.42441,603.06599,422.42441 C 603.35548,422.42441,604.90855,423.00866,605.37628,422.42441 C 608.12312,418.9915,610.20629,425.78048,609.566,426.90189 C 609.08303,427.74781,608.47357,429.38017,607.52783,430.35428 C 606.86982,431.03236,607.26669,431.62759,607.26669,432.91825 C 607.26669,434.60797,606.0063,434.38737,606.21642,434.38737 C 606.08815,434.68658,605.87696,436.34514,605.79653,436.48607 C 605.78953,436.49777,604.96454,436.50837,604.74627,436.48607 C 604.39653,436.45027,604.53614,436.40817,604.53614,436.06612 C 604.53614,435.28216,603.48623,435.73363,603.48623,435.01695 C 603.48623,434.94715,604.70729,432.91825,603.27611,432.91825 C 602.17837,432.91825,601.47004,432.78405,600.96582,433.33785 C 600.52643,433.82083,600.80955,434.54317,600.3358,435.01695 C 599.58424,435.76798,598.53469,435.5665,597.60561,435.8565 C 596.81012,436.10472,596.95752,437.12202,596.34558,437.32562 C 596.40798,438.07594,596.25768,438.37479,596.97559,438.37479 C 597.89298,438.37479,598.79194,438.56317,599.28554,437.95519 C 599.86594,437.24135,599.69232,437.11565,600.75569,437.11565 L 602.64609,437.11565 L 602.64609,437.95519 C 602.64609,438.69984,601.66918,438.29724,600.3358,439.42431 C 599.92937,440.03335,599.25648,441.58072,598.65552,441.94261 C 597.94117,442.37353,597.82601,441.97061,597.13576,443.29134 C 596.59893,444.31927,597.18536,444.72718,597.18536,446.34998 C 597.18536,447.08755,597.0089,449.25247,597.60561,449.28822 C 598.31075,449.33102,600.29682,449.93835,600.54592,449.4982 C 600.98743,448.71672,601.36764,448.32085,601.80595,447.60913 C 602.9976,445.67296,606.13918,445.94596,607.68658,444.0413 C 608.8598,442.59767,611.85291,437.75442,612.93719,440.68346 C 613.03039,440.93522,613.68272,441.29427,613.77732,441.31303 C 614.52711,441.46246,614.01686,441.41572,614.40734,441.73298 C 614.61392,441.90011,614.7677,441.63278,614.82723,442.15258 C 614.91723,442.9376,614.40734,443.44218,614.40734,444.25128 C 613.3592,445.92719,613.79469,445.27106,612.09705,445.7204 C 611.77353,445.8061,611.49042,447.29823,611.25691,447.8191 C 610.96422,448.47311,609.836,450.6104,609.15673,450.75735 C 608.06749,450.99388,605.69058,450.26552,605.16616,451.5969 C 604.66406,452.87269,605.4475,453.40489,606.42655,453.48562 C 608.45053,453.65311,607.40311,452.37732,608.31659,451.80687 C 609.25489,451.2205,608.68688,452.80222,609.15673,452.85605 C 610.30373,452.98741,609.55714,453.6956,610.41677,453.6956 C 611.46419,454.74229,612.11476,454.51284,611.25691,455.58432 C 609.43135,457.86643,609.2563,462.13748,606.84644,463.55987 C 605.74586,464.20962,605.3855,465.95175,606.42655,467.12769 C 607.20468,468.00725,609.07098,469.12936,607.8967,470.69551 C 606.62994,470.27343,604.8958,469.88181,604.74627,471.53506 C 604.71577,471.8718,604.1446,471.9713,603.90613,472.16463 C 603.88413,472.18273,602.79563,474.23642,602.64609,472.58423 C 602.54829,471.50461,601.98596,472.64403,601.59583,472.79421 C 601.24078,472.93018,600.97786,472.73511,600.75569,473.00418 C 600.60368,473.18796,600.02221,473.94394,599.70578,474.05335 C 598.94785,474.31538,597.22292,474.05335,596.34558,474.05335 C 596.34558,473.31437,596.51814,472.47234,595.92533,472.16463 C 595.14437,471.75955,593.88044,472.27723,592.98502,471.95466 C 592.82663,471.89766,593.06862,471.6466,593.19514,471.53506 C 593.61681,471.16185,593.91162,471.53306,594.24505,471.11511 C 594.64865,470.61159,595.39276,470.63637,595.71521,470.06593 C 595.75631,469.99263,596.32751,469.2533,596.13546,469.01641 C 595.93454,468.76961,595.58269,468.76217,595.50544,468.38683 C 595.43744,468.05682,595.3924,467.65174,595.29532,467.33731 C 595.11,466.73783,595.00157,465.5796,594.6653,465.44859 C 594.25178,465.28677,592.88049,465.34165,592.7749,465.65856 C 590.33527,465.49639,591.88798,465.65856,587.94454,465.65856 C 586.4393,465.65856,586.78514,466.16845,586.26426,466.28814 C 586.03075,466.34164,582.82007,470.10524,583.11418,467.54728 C 583.17408,467.02642,582.39806,466.53211,582.48416,465.86818 C 582.53026,465.5102,583.46497,465.72761,583.74419,465.44859 C 584.27995,464.91285,585.21435,464.44049,585.21435,463.34989 C 585.21435,461.58227,581.38783,462.62542,581.85379,461.88077 C 582.33038,461.11876,579.96906,462.25752,579.96374,462.30036 C 579.83831,463.26986,580.62813,462.28156,579.75362,463.55987 C 579.33798,464.16784,578.90923,467.75726,578.28346,467.75726 C 577.25269,467.75726,576.347,467.88048,575.34315,467.96688 C 574.73723,468.01928,574.41088,468.3408,574.08312,469.01641 C 573.83402,469.5309,573.0038,469.00401,572.82309,469.22638 C 572.5506,469.56206,572.19307,471.60588,572.19307,469.85596 C 572.19307,468.80006,570.15172,466.09728,569.46253,465.86818 C 567.58417,464.77369,569.35056,464.63241,569.46253,463.76949 C 569.70844,461.87758,570.0642,462.44767,568.62274,461.88077 C 568.21348,461.71965,567.58417,458.11465,567.15259,457.68337 C 566.8234,457.35442,565.29655,455.80315,565.26218,455.79429 C 564.10243,455.48765,561.37012,456.94226,560.85172,456.42387 C 560.55478,456.12714,560.73726,455.20863,560.01158,455.16472 C 558.23846,455.05672,558.29413,453.78812,556.8959,452.75658 L 557.46426,444.07176 C 558.19137,444.40708,560.08319,444.83057,560.66041,444.07176 C 561.44988,443.03321,560.04138,443.55939,561.37086,443.1844 C 562.27017,442.93087,563.74068,442.83562,563.85691,441.94225 C 563.92001,441.45467,565.44506,442.18126,565.81003,441.23265 C 566.44819,439.57586,567.58598,440.51774,567.58598,438.3932 C 567.58598,437.51009,566.04248,431.3521,568.65148,432.53759 C 569.52386,432.93382,570.95965,432.21148,570.95965,431.11804 C 570.95965,429.60643,571.94188,430.38684,572.20267,429.34334 L 572.3802,428.45634 C 572.4344,428.18581,570.47279,427.65716,570.42708,427.21419 C 570.35298,426.49184,570.6046,426.08747,570.6046,425.43948 C 570.6046,423.68602,570.44904,424.10739,572.20267,424.19733 C 573.66291,424.27243,573.9889,424.64526,574.86624,424.90728 C 575.56429,425.11584,576.11777,425.45294,576.46467,424.55249 C 576.84948,423.55112,578.7289,423.80925,579.83834,423.66513 C 580.45666,423.58513,580.98385,421.93504,581.39276,421.93504 L 581.13572,419.40358 C 581.39846,418.94722,582.48487,417.57158,583.16237,417.96143 C 584.07834,418.48903,584.24169,419.1742,585.33022,419.31548 C 585.53219,419.34208,585.64275,420.81505,585.73665,421.07567 C 585.88901,421.49774,587.27767,422.02357,587.9045,422.02357 C 589.03059,422.02357,591.21049,422.87622,592.10519,422.42971 C 592.42162,422.27143,592.72352,421.81147,592.91805,421.61742 C 592.94885,421.58622,593.02116,421.40037,593.05341,421.34655 C 593.15865,421.17056,593.44035,421.13126,593.59555,420.9404 C 593.76705,420.72936,594.02217,420.33809,594.27305,420.26338 C 594.50797,420.19288,595.35697,419.83564,595.35697,419.58636 C 595.29637,418.79886,595.14437,418.63846,594.4084,418.63846 C 594.17808,418.63846,593.8939,418.63446,593.73091,418.50319 C 593.44921,418.27445,593.34751,418.37183,592.91805,418.23231 C 592.64981,418.14481,592.37591,417.67568,592.37591,417.42003 C 592.37591,416.88217,592.24055,416.47708,592.24055,415.93037 L 598.07245,414.56634 Z" fill="#d3d3d3" stroke="#ffffff" stroke-width="0.75" stroke-linejoin="round" />
</svg>
