<?xml version="1.0" encoding="UTF-8"?>
<svg xmlns="http://www.w3.org/2000/svg" viewBox="370.65772 367.3625 138.74951 135.27678" role="img" aria-labelledby="title-MXJAL">
  <title id="title-MXJAL">Jalisco</title>
  <path id="MXJAL" data-id-entidad="14" data-codigo="MXJAL" data-nombre="Jalisco" d="M 387.53838,438.87286 C 387.87231,439.5683,387.71881,440.60383,387.71881,441.74365 C 387.71881,443.36007,387.41621,444.49777,386.17141,445.05723 C 384.41247,445.84827,380.95022,444.88514,380.20256,445.27818 C 378.82311,446.00373,378.20727,444.65712,376.66518,446.16199 C 375.65957,447.14355,376.56278,448.15022,374.67557,448.15022 C 375.51323,453.45238,376.03836,455.51248,378.43369,460.30085 C 378.94465,461.32205,380.4832,466.69503,380.86553,466.92837 C 386.55445,470.39528,390.7711,472.13634,392.58248,477.09079 C 395.17271,484.17579,401.25707,486.31875,407.28617,488.63451 C 407.43747,488.50774,407.55334,488.43445,407.61429,488.43445 C 409.00188,488.43445,411.34619,486.89521,412.3837,485.92607 C 414.90802,483.56924,419.75751,485.10068,422.67585,483.79373 C 425.89397,482.35364,423.00397,480.23547,425.93932,478.90232 C 427.3868,478.54079,426.89498,479.33147,427.94737,479.52941 C 429.3052,479.784,429.37996,478.81556,430.0812,480.28186 C 430.522,481.20426,432.64095,480.26206,433.34467,481.03465 C 433.58279,481.29633,433.34967,482.01832,433.59554,482.1635 C 434.81234,482.88124,435.79139,480.34736,435.98025,479.78011 C 436.58369,477.96893,437.77852,479.50108,439.24372,478.14987 C 441.2103,477.4948,440.33331,481.57075,442.00509,481.7871 C 443.02559,481.91917,442.59046,483.2155,443.26016,483.29234 C 443.58261,483.32914,445.02583,483.1245,445.26856,483.41769 C 445.71432,483.95767,444.31255,483.76682,444.13892,483.79373 C 443.29736,483.92687,443.19,487.24789,443.51103,487.93305 C 443.67651,488.28502,444.38164,488.12143,444.01313,489.18725 C 443.90081,489.51337,442.25419,489.59764,441.75386,489.93969 C 441.66456,490.00059,442.8835,492.78198,442.8835,493.95331 C 442.8835,495.58603,443.8877,494.21711,443.8877,495.5839 C 443.8877,495.93905,443.9267,495.9989,444.01313,496.46169 C 444.02343,496.43119,447.50621,497.13092,448.40624,496.46169 C 449.05539,495.97871,449.47174,494.63848,450.41428,495.2075 C 451.9468,496.13203,451.21473,495.65224,452.04601,495.33285 C 453.43857,494.79782,453.42688,496.45001,453.42688,497.33984 C 453.42688,499.58478,455.37008,498.5048,455.68615,496.96344 C 456.07805,495.05418,456.39695,495.03648,458.07085,494.32971 C 459.06123,493.91082,459.18029,493.01249,459.32593,491.94668 C 459.4992,491.25301,459.69656,490.71267,460.0789,490.19074 C 460.4382,489.70139,463.12976,490.34229,463.71903,489.93969 C 464.03191,489.72582,464.13325,489.15325,464.22078,488.6855 C 465.45778,488.56227,465.06906,487.80735,466.60584,487.80735 C 467.93745,487.80735,466.74155,488.92876,467.86091,489.0619 C 470.76827,489.40749,469.19393,488.6076,469.99474,487.80735 C 470.63149,487.17105,470.63185,486.34744,471.12402,485.17362 C 471.50033,484.27742,471.60841,484.22289,472.00279,483.79373 C 472.60162,483.14185,472.5304,482.98569,472.75576,482.1635 C 472.94675,481.46558,473.08777,481.21311,473.25786,480.53291 C 473.62212,480.41181,473.50908,478.59426,473.50908,478.14987 C 473.50908,476.96792,471.80719,477.58085,470.87315,477.39708 C 468.21489,476.87515,469.99262,480.11012,467.60968,479.02766 C 467.08738,478.79042,467.67378,477.56669,467.10758,477.39708 C 465.45919,476.90418,466.78832,474.78211,465.4762,474.5123 C 464.19703,474.24921,464.27782,474.428,464.472,473.13276 C 464.64031,472.00639,464.80792,470.57728,464.59744,469.24448 C 464.09144,469.07594,464.81677,468.76434,464.84867,468.74274 C 465.13639,468.54586,465.76711,468.59543,466.22917,468.49204 C 467.16605,468.28277,467.98634,468.50334,467.98634,467.3632 C 467.98634,466.54418,467.7298,465.74536,467.35881,464.85446 C 466.62107,464.60908,465.59065,464.47842,464.59744,464.47842 C 463.27859,464.47842,462.63475,462.88076,461.33397,463.22423 C 460.86305,463.34816,459.50097,463.40694,459.32593,463.85132 C 459.22529,464.10733,459.32293,464.94794,458.82383,464.98016 C 457.03866,465.09524,458.9241,463.84884,456.81578,463.97667 C 456.31156,464.00717,456.85228,464.86439,456.18825,463.72562 L 459.07505,456.82722 C 460.09697,456.06167,459.22246,455.82409,461.20853,455.82409 C 462.18474,455.82409,462.53483,455.44769,462.9657,455.44769 C 463.78529,455.44769,463.31792,455.88393,463.71903,456.07478 C 465.20726,456.78297,465.8479,457.34987,467.60968,457.20363 C 468.6114,457.12073,468.39773,456.38178,468.86511,455.69874 C 469.03554,455.44946,469.80411,455.36306,469.86895,455.19699 C 470.04081,454.75615,469.95325,454.44419,470.62228,454.44419 L 472.00279,454.44419 C 472.18775,453.88933,472.81103,453.55649,472.88155,452.56291 C 472.93615,451.78745,474.42682,450.84557,474.88959,450.55627 C 475.2574,450.32682,475.12665,451.10689,475.26626,451.30872 C 475.74426,452.00132,477.82211,451.39582,478.2785,451.30872 C 478.57721,451.25132,482.19785,450.63488,482.29494,450.68162 C 482.4466,450.75492,482.03485,451.88978,482.54581,451.93581 C 483.53194,452.02471,484.71437,450.95392,485.05631,450.30522 C 485.46912,449.52127,487.16215,450.30022,487.94312,450.43057 C 487.94312,447.07521,488.20674,446.46157,489.44906,444.03392 C 489.77328,443.4008,489.99899,443.86218,490.20239,443.53217 C 491.45285,441.50075,491.79089,442.35942,490.32782,440.0203 C 490.15065,439.73702,490.62759,438.85109,490.45326,438.7661 C 488.25104,437.69498,487.81732,439.8089,487.81732,437.01017 C 489.48556,437.01017,489.34063,433.45084,489.82572,432.36945 C 490.72504,430.36246,493.44956,428.99886,494.9718,427.47768 C 496.8824,425.56878,497.90184,420.78784,499.74121,419.82684 C 502.34561,418.46677,501.40271,416.71933,502.75346,414.55902 C 501.05617,414.13482,502.37715,411.99328,502.37715,410.7961 C 502.37715,409.43143,502.82326,408.23673,503.25556,407.03353 C 503.47914,406.41174,504.04538,406.08669,504.13432,405.15224 C 504.22892,404.15618,504.42771,402.56915,505.38939,402.14176 L 497.60773,395.11801 L 493.9676,395.11801 C 493.6207,395.23344,493.15191,398.15894,492.9634,398.88093 C 492.42516,400.94599,491.99889,401.0377,490.32782,402.01641 L 483.04791,406.28108 C 480.42615,407.81678,483.35229,409.6145,478.2785,408.66412 C 477.48336,408.66412,477.35367,407.69178,477.14886,407.15887 C 477.05066,406.90428,475.03416,406.02826,474.51293,405.90468 C 473.80815,405.73684,474.14583,405.41214,473.75996,405.02654 C 473.12569,404.39272,471.23599,405.59025,470.74771,404.27409 C 470.63681,403.97453,470.93126,403.61301,470.49649,403.52165 C 470.42529,403.50645,469.62481,403.83856,469.24142,403.8977 C 468.15501,404.06624,468.84314,404.30455,468.61388,404.90119 C 468.43777,405.35868,466.72667,405.02654,466.22917,405.02654 C 466.3826,405.63947,466.44497,406.6504,466.48005,407.15887 C 466.51795,407.70842,466.22917,407.92796,466.22917,408.53841 C 466.22917,409.71223,467.32585,409.75118,467.86091,410.42005 C 468.14544,410.77521,468.4934,411.52376,469.11598,411.1725 C 469.5139,410.94836,469.56847,411.1675,470.12018,411.5489 L 470.24561,417.31846 C 468.51325,417.31846,468.048,417.94555,466.73127,417.94555 C 466.45489,417.94555,465.54494,419.29818,465.09954,419.57614 C 464.11731,420.19013,463.28992,418.77129,463.09149,420.70498 C 463.03129,421.28746,463.09049,422.89539,462.0873,422.20987 C 461.66988,421.92447,462.70314,421.20673,461.45976,421.20673 C 460.06331,421.20673,458.83304,421.18693,457.44332,420.95568 L 457.69419,427.22699 L 452.67355,427.85408 C 452.23169,427.96456,452.64735,428.09097,452.04601,428.23048 C 451.64632,428.32258,451.28348,428.34945,450.91638,428.48118 C 450.7346,428.54668,449.82856,428.916,449.78674,428.98292 C 449.56386,429.33843,449.65528,429.23362,449.03377,429.23362 C 448.61671,429.23362,448.47427,429.32992,448.2808,428.98292 C 447.96473,428.41602,447.71846,428.45745,447.40204,428.10513 C 447.2355,427.91888,447.1416,427.22876,447.02573,426.97629 C 446.71816,426.30493,446.61469,425.8648,446.2724,425.09465 C 446.2724,424.24589,444.26684,424.11913,443.51103,424.21686 C 442.91255,424.29436,443.3739,425.21964,442.38175,425.47105 C 442.17056,425.52455,441.39598,426.07442,441.25212,425.5964 C 441.04731,424.91937,441.12633,424.17366,441.12633,423.46406 C 441.12633,421.80266,441.24999,421.84445,439.74582,422.46092 C 437.98971,423.18079,439.87409,420.7064,438.86705,420.07789 C 438.61016,419.91713,438.13959,419.29535,437.98865,418.94904 C 437.74309,418.38356,437.76329,418.15517,437.10988,418.0709 C 436.47632,417.9891,436.65668,418.0759,436.60778,417.19311 C 436.60778,416.03771,436.39093,415.06077,437.73742,415.06077 C 439.1399,415.06077,437.5032,416.06426,439.36915,416.06426 C 440.22914,416.06426,440.36591,416.22006,440.87545,415.68787 C 441.7404,414.78458,442.25596,416.36312,442.25596,414.18262 C 442.25596,413.3537,440.73726,414.30266,440.12248,414.05728 C 439.81987,413.93653,438.81071,412.84168,438.23952,413.55553 C 438.09176,413.74001,437.88908,414.15678,437.73742,414.30833 C 437.66262,414.38303,437.23567,414.34303,437.23567,414.18262 C 437.23567,413.82924,438.20408,413.92485,437.73742,413.17948 C 437.16906,412.27018,438.08609,411.60945,438.61618,411.5489 C 439.07895,411.4961,439.15301,410.47352,439.24372,410.04365 C 440.43678,409.64636,441.24645,409.41656,442.50719,409.41656 C 442.9005,409.41656,443.2676,408.52496,443.51103,408.03702 C 443.68041,407.69816,443.34945,406.88056,443.51103,406.53178 C 443.57233,406.3997,444.46775,404.84029,444.13892,404.65049 C 443.27894,404.15477,441.73437,404.19124,442.63262,402.89456 C 442.12804,402.89456,442.19112,402.26746,443.13472,402.26746 C 443.80832,402.26746,444.41566,402.18066,444.89189,402.01641 C 445.71077,401.7342,445.26076,399.97437,446.7745,399.75873 C 447.80846,399.61142,448.17237,399.20705,448.40624,398.50454 C 448.7301,397.53362,449.83848,398.17594,450.28884,397.50104 C 450.65027,396.95928,450.51208,396.90475,451.29304,396.62325 C 452.09491,396.33467,451.74908,396.80773,452.54811,396.87395 C 453.75606,396.55243,455.40126,396.53154,456.31368,395.61976 C 456.34588,395.58716,456.31368,394.54509,456.31368,394.49091 C 456.31368,393.14006,456.27048,393.65349,455.18405,393.11137 C 454.78293,392.91131,455.38921,392.24704,455.18405,391.85683 C 454.8818,391.28426,454.98987,390.54563,455.43492,390.10089 C 455.80946,389.72697,455.8945,388.60734,455.93702,387.96891 C 455.93702,386.79581,455.56036,386.43994,455.56036,385.33483 C 455.56036,384.57176,454.94416,384.4797,454.30528,384.08064 C 453.41731,383.52613,453.69192,383.64227,453.42688,382.95179 C 453.27876,382.56725,453.15581,382.80768,452.79934,382.57539 C 451.87451,381.97415,452.79034,382.07365,451.41848,382.07365 C 451.02835,382.59381,449.98447,383.03146,449.66131,383.57889 C 449.45508,383.92802,448.91117,384.28955,448.90834,384.33133 C 448.82184,385.58021,448.33856,386.259,448.7829,387.21611 C 448.99479,387.67395,449.37039,387.63606,449.53587,388.09426 C 449.63187,388.36089,448.45762,389.28542,448.15536,389.4738 C 447.96827,389.59065,447.03069,389.34349,446.89994,389.4738 C 446.61434,389.75919,446.90194,390.73613,446.7745,391.10439 C 446.47367,391.97722,446.50343,390.36079,446.14697,392.23323 L 438.11408,392.10788 C 437.37209,389.88277,439.00312,391.68085,439.36915,390.10089 C 439.72845,388.55316,439.91448,387.38183,440.75002,386.46367 C 440.77692,386.43427,441.08947,385.49771,441.37755,385.33483 C 441.93174,385.02252,441.74536,383.40538,442.00509,382.82645 C 442.29494,382.17846,442.67869,382.50174,442.8835,381.82295 C 443.26725,380.55212,442.38175,381.60448,442.38175,380.44341 C 442.38175,379.22676,441.37755,380.66224,441.37755,379.43992 C 441.37755,377.67584,441.37955,377.68398,439.87125,377.68398 L 436.10604,377.68398 L 432.71713,391.22973 L 431.46206,379.69061 C 431.46206,379.17754,431.71293,379.14921,431.71293,378.56177 C 431.71293,378.27496,431.58821,376.76228,431.83837,376.68049 C 432.4535,376.48043,435.35271,376.68049,435.4785,376.55514 C 436.27825,375.75595,434.83963,375.11399,436.48235,374.54815 C 436.86716,374.41572,436.84944,374.29745,436.35691,374.29745 C 435.38886,374.29745,435.72938,372.70971,435.72938,371.91442 L 429.70454,371.41267 C 428.55931,371.12657,427.20077,372.79859,428.07316,373.67036 C 428.79424,374.39129,429.29173,374.97731,429.20279,376.05339 C 429.18149,376.31152,428.98097,376.29594,428.95156,376.55514 C 428.89836,377.02006,428.78963,376.58954,428.70069,376.93154 C 428.61279,377.26899,429.20208,377.42302,429.45366,377.55863 C 429.70489,377.80968,429.6528,380.62648,429.5791,381.19586 C 429.4919,381.87005,428.07316,381.61085,428.07316,382.45005 C 428.07316,383.51338,427.86835,383.42805,426.94352,383.82994 C 425.43049,384.48713,426.09984,383.29066,425.81389,382.57539 C 425.31923,381.3382,425.06268,381.77019,425.31179,380.44341 C 425.31179,380.05816,424.96808,380.08613,424.68425,379.69061 C 424.59925,379.57199,424.5659,378.83903,424.55881,378.68747 C 424.52271,377.92937,423.78494,377.88617,423.05252,378.06003 C 422.22726,378.25655,422.17375,379.55925,422.17375,380.56876 C 422.17375,382.17031,421.15467,381.19373,420.54237,381.9483 C 420.41552,382.1041,420.41084,382.50089,420.29115,382.57539 C 420.23525,382.61019,419.75485,382.60049,419.43017,382.57939 C 419.38997,383.41175,419.2552,384.78566,419.08568,385.33418 C 419.04518,385.46526,418.33306,385.53849,418.28133,385.9372 C 418.12932,387.1057,418.36283,387.25831,417.67789,388.14779 C 417.35154,388.57163,417.47662,389.20404,417.47662,389.75536 C 417.47662,390.78045,416.2701,390.09458,416.2701,391.56406 C 416.2701,392.86782,416.39518,394.60464,416.06883,395.58334 C 418.04959,396.49725,418.33129,395.27564,420.0913,395.38257 C 420.1657,395.38657,421.59972,395.69311,422.10218,395.78447 C 423.15138,395.97461,423.831,398.26133,422.90653,398.99997 C 421.90375,399.80128,422.36935,403.3521,424.7165,402.21547 C 425.44325,401.86315,426.41697,401.99275,427.33117,402.61736 C 428.14544,403.17435,427.56751,404.02417,429.14114,404.02417 C 429.49937,405.81587,429.07344,405.05882,430.1464,405.83286 C 431.04252,406.47943,429.6567,411.17114,430.34766,411.86162 C 430.37846,411.89282,430.87811,411.85362,430.95075,411.86162 C 431.11127,411.87972,431.19454,412.03371,431.35328,412.06274 C 435.74355,412.86405,432.96198,414.54917,432.96198,417.48883 C 432.96198,419.30674,432.95398,420.33431,431.75545,421.307 C 430.60208,422.24357,429.89942,419.78688,428.5377,420.50321 C 428.4516,420.54851,428.33643,420.87926,428.33643,421.10623 C 428.33643,422.38804,427.53456,422.09485,427.33117,423.31682 C 426.64127,423.15783,426.36666,423.11569,425.72211,423.11569 C 425.40285,423.11569,425.03576,423.14439,424.7165,423.11569 C 423.97876,423.04909,424.57689,423.17699,424.11341,422.7138 C 423.99931,422.59978,423.87104,422.53109,423.71123,422.51303 C 423.14854,422.44823,423.4965,422.67379,423.10779,422.7138 C 422.40124,422.786,421.61035,422.7138,420.89565,422.7138 L 420.89565,430.75485 L 417.47662,434.169 L 419.89003,437.18338 L 420.29221,442.81059 C 419.6629,441.76213,419.92511,441.50258,419.68877,440.39888 C 419.40884,439.09051,417.74167,439.77037,417.07445,438.59018 C 416.77361,438.05834,416.33742,436.66357,415.86792,435.9777 C 415.10857,434.86868,409.9873,433.68319,409.83458,432.3603 C 409.64111,430.67837,408.65888,430.75238,407.01935,430.75238 C 406.6395,430.75238,406.30996,429.32468,406.21464,428.94368 C 404.44153,428.15618,399.68133,427.27308,399.17604,429.74782 C 398.63992,432.37447,396.29419,430.26656,394.95266,431.35539 C 393.88574,432.22185,392.81599,432.16555,392.13743,433.36521 C 391.38092,434.70262,388.68935,434.81238,388.31623,436.37959 C 388.0402,437.53853,387.97564,438.19413,387.53838,438.87292 Z" fill="#d3d3d3" stroke="#ffffff" stroke-width="0.75" stroke-linejoin="round" />
</svg>
