<?xml version="1.0" encoding="UTF-8"?>
<svg xmlns="http://www.w3.org/2000/svg" viewBox="372.69046 357.22419 63.95913 88.40552" role="img" aria-labelledby="title-MXNAY">
  <title id="title-MXNAY">Nayarit</title>
  <path id="MXNAY" data-id-entidad="18" data-codigo="MXNAY" data-nombre="Nayarit" d="M 378.32711,376.28258 C 379.14599,376.26028,379.96196,376.31258,380.26351,376.66065 C 381.00549,377.51896,381.62984,378.25264,382.95259,378.30292 C 386.07291,378.42154,383.99222,375.11008,383.84907,373.52517 C 383.80727,373.06308,382.11883,372.69943,382.20564,371.73382 C 382.33285,370.32702,382.59754,368.11289,383.25165,366.95607 C 383.82249,365.9455,381.92784,362.02925,384.14778,362.02925 C 384.89508,362.02925,386.7054,360.80551,387.14248,360.04337 C 387.33467,360.09097,387.46932,360.22948,387.51188,360.41424 C 387.65188,361.02222,388.37009,361.7612,388.11497,362.42406 C 387.82441,363.17969,387.64688,362.62837,387.91406,363.42897 L 397.96951,363.42897 L 397.96951,366.04146 C 397.96951,366.67138,397.81714,366.70432,398.17042,366.84524 C 399.11757,367.22306,398.26432,367.20606,398.5726,368.05092 C 398.80611,368.69041,402.12769,369.84192,400.58383,371.06565 C 399.39466,372.00825,395.29991,370.7969,395.5561,373.27625 C 395.71591,374.82221,396.47561,374.48193,397.76825,374.48193 C 399.30466,374.48193,399.57821,374.48493,399.57821,376.08985 C 399.15265,377.18399,398.90107,377.23498,398.97477,378.30044 C 399.02337,378.998,400.99947,378.23034,401.18692,377.89855 C 401.61992,377.13301,402.98058,377.3228,403.19815,376.69252 C 403.28855,376.43155,403.19815,375.76303,403.19815,375.48684 C 403.19815,375.09167,403.31969,373.9044,403.60032,373.87926 C 404.16868,373.82826,405.04284,373.78156,405.20938,374.28116 C 405.20938,376.67517,405.42482,377.94671,407.62243,378.09932 C 408.38675,378.15242,407.51897,382.11861,410.23675,382.11861 L 419.48786,382.11861 C 419.44566,382.79173,419.29084,384.66913,419.08568,385.33411 C 419.04488,385.46512,418.33306,385.53842,418.28133,385.93713 C 418.12932,387.10563,418.36283,387.25824,417.67789,388.14772 C 417.35154,388.57156,417.47662,389.20397,417.47662,389.75529 C 417.47662,390.78038,416.2701,390.09451,416.2701,391.56399 C 416.2701,392.86775,416.39518,394.60457,416.06883,395.58327 C 418.04959,396.49718,418.33129,395.27557,420.0913,395.3825 C 420.1657,395.3865,421.59972,395.69304,422.10218,395.7844 C 423.15138,395.97454,423.831,398.26126,422.90653,398.9999 C 421.90375,399.80121,422.36935,403.35203,424.7165,402.2154 C 425.44325,401.86308,426.41697,401.99268,427.33117,402.61729 C 428.14544,403.17428,427.56751,404.0241,429.14114,404.0241 C 429.49937,405.8158,429.07344,405.05875,430.1464,405.83279 C 431.04252,406.47936,429.6567,411.17107,430.34766,411.86155 C 430.37846,411.89275,430.87811,411.85355,430.95075,411.86155 C 431.11127,411.87965,431.19454,412.03364,431.35328,412.06267 C 435.74355,412.86398,432.96198,414.5491,432.96198,417.48876 C 432.96198,419.30667,432.95398,420.33424,431.75545,421.30693 C 430.60208,422.2435,429.89942,419.78681,428.5377,420.50314 C 428.4516,420.54844,428.33643,420.87919,428.33643,421.10616 C 428.33643,422.38797,427.53456,422.09478,427.33117,423.31675 C 426.64127,423.15776,426.36666,423.11563,425.72211,423.11563 C 425.40285,423.11563,425.03576,423.14433,424.7165,423.11563 C 423.97876,423.04903,424.57689,423.17693,424.11341,422.71374 C 423.99931,422.59972,423.87104,422.53103,423.71123,422.51297 C 423.14854,422.44817,423.4965,422.67373,423.10779,422.71374 C 422.40124,422.78594,421.61035,422.71374,420.89565,422.71374 L 420.89565,430.75479 L 417.47662,434.16894 L 419.89003,437.18332 L 420.29221,442.81053 C 419.6629,441.76207,419.92511,441.50252,419.68877,440.39882 C 419.40884,439.09044,417.74167,439.7703,417.07445,438.59012 C 416.77361,438.05828,416.33742,436.66351,415.86792,435.97764 C 415.10857,434.86862,409.9873,433.68313,409.83458,432.36024 C 409.64111,430.67831,408.65888,430.75232,407.01935,430.75232 C 406.6395,430.75232,406.30996,429.32462,406.21464,428.94362 C 404.44153,428.15612,399.68133,427.27302,399.17604,429.74776 C 398.63992,432.37441,396.29419,430.2665,394.95266,431.35533 C 393.88574,432.22179,392.81599,432.16549,392.13743,433.36515 C 391.38092,434.70256,388.68935,434.81232,388.31623,436.37953 C 388.0402,437.53847,387.97677,438.19743,387.53952,438.87623 C 387.29325,438.35607,386.7784,438.02747,385.72884,437.98852 C 384.01171,437.92552,382.34419,437.76757,380.64407,437.76757 C 380.8471,435.12286,382.99476,434.34103,383.51812,432.90731 C 384.49893,430.2226,388.65852,430.11601,389.26622,427.82646 C 390.08191,424.75083,387.4155,421.97157,388.60289,418.54751 C 389.65209,415.52251,390.25624,413.72797,387.05549,411.47808 C 385.91381,410.67571,383.38772,404.68696,381.5285,404.40865 C 379.95488,404.17282,376.75767,396.74152,376.66483,395.35099 C 376.47384,394.39494,376.17407,394.61023,376.22261,393.58373 C 376.25911,392.81677,376.82995,392.24597,376.88594,391.81646 C 377.03653,390.65894,375.55964,387.96962,375.55964,386.51429 C 375.55964,386.03345,375.35271,384.52607,375.7804,384.52607 C 377.11024,384.52607,376.06493,384.58237,376.44372,385.18894 C 376.9809,386.04725,377.32815,387.42962,377.32815,388.72347 C 377.32815,390.53464,377.25485,389.86541,378.21223,390.7117 C 378.64027,391.09021,378.5889,393.21476,378.21223,393.36277 C 376.69708,393.95941,378.3646,394.5543,378.43334,394.46753 C 379.03855,393.69952,379.44569,393.2916,380.2022,392.92086 C 381.25672,392.40354,380.72486,393.41482,380.86517,393.80467 C 380.93847,394.00686,381.52035,394.45372,381.5285,394.46753 C 382.34596,395.77413,382.96145,395.35418,384.40255,394.24658 C 384.40255,392.093,381.05368,392.86031,379.31777,390.93264 C 378.62646,390.16533,378.17262,384.90881,377.77037,383.86321 C 377.28964,382.61363,378.01575,379.28988,378.32711,376.28258 Z" fill="#d3d3d3" stroke="#ffffff" stroke-width="0.75" stroke-linejoin="round" />
</svg>
